<?xml version="1.0" encoding="UTF-8" standalone="no"?>
<!-- Created with Inkscape (http://www.inkscape.org/) -->

<svg
   width="112.59079mm"
   height="34.880058mm"
   viewBox="0 0 112.59079 34.880058"
   version="1.1"
   id="svg5"
   inkscape:version="1.2.2 (732a01da63, 2022-12-09)"
   sodipodi:docname="blcktext.svg"
   xmlns:inkscape="http://www.inkscape.org/namespaces/inkscape"
   xmlns:sodipodi="http://sodipodi.sourceforge.net/DTD/sodipodi-0.dtd"
   xmlns="http://www.w3.org/2000/svg"
   xmlns:svg="http://www.w3.org/2000/svg">
  <sodipodi:namedview
     id="namedview7"
     pagecolor="#ffffff"
     bordercolor="#000000"
     borderopacity="0.25"
     inkscape:showpageshadow="2"
     inkscape:pageopacity="0.0"
     inkscape:pagecheckerboard="0"
     inkscape:deskcolor="#d1d1d1"
     inkscape:document-units="mm"
     showgrid="false"
     inkscape:zoom="1.9099422"
     inkscape:cx="358.64959"
     inkscape:cy="451.84613"
     inkscape:window-width="1920"
     inkscape:window-height="991"
     inkscape:window-x="-9"
     inkscape:window-y="-9"
     inkscape:window-maximized="1"
     inkscape:current-layer="layer1" />
  <defs
     id="defs2">
    <rect
       x="30.358381"
       y="372.44553"
       width="730.82251"
       height="233.24123"
       id="rect113" />
    <rect
       x="30.358381"
       y="372.44553"
       width="730.82251"
       height="233.24123"
       id="rect113-6" />
  </defs>
  <g
     inkscape:label="Layer 1"
     inkscape:groupmode="layer"
     id="layer1"
     transform="translate(-46.894659,-111.4263)">
    <g
       aria-label="BLCK"
       transform="matrix(0.43105887,0,0,0.43105887,37.640155,-53.604277)"
       id="text111-3"
       style="font-weight:900;font-size:96px;font-family:Roboto;-inkscape-font-specification:'Roboto, Heavy';white-space:pre;shape-inside:url(#rect113-6);display:inline;fill:#ffffff;stroke:#000000;stroke-width:0;stroke-linecap:round">
      <path
         d="m 37.294922,456.44531 v -68.25 h 23.390625 q 11.578125,0 17.625,4.64063 6.046875,4.64062 6.046875,13.82812 0,4.6875 -2.53125,8.4375 -2.53125,3.75 -7.40625,5.8125 5.53125,1.5 8.53125,5.67188 3.046875,4.125 3.046875,9.9375 0,9.60937 -6.1875,14.76562 -6.140625,5.15625 -17.625,5.15625 z m 11.859375,-30.79687 v 21.32812 h 13.171875 q 5.578125,0 8.71875,-2.76562 3.140625,-2.76563 3.140625,-7.6875 0,-10.64063 -10.875,-10.875 z m 0,-8.71875 h 11.625 q 5.53125,0 8.625,-2.48438 3.140625,-2.53125 3.140625,-7.125 0,-5.0625 -2.90625,-7.3125 -2.859375,-2.25 -8.953125,-2.25 h -11.53125 z"
         style="font-weight:500;-inkscape-font-specification:'Roboto, Medium'"
         id="path263" />
      <path
         d="m 109.7168,446.97656 h 30.98437 v 9.46875 H 97.857422 v -68.25 H 109.7168 Z"
         style="font-weight:500;-inkscape-font-specification:'Roboto, Medium'"
         id="path265" />
      <path
         d="m 198.87305,434.22656 q -1.03125,10.92188 -8.0625,17.0625 -7.03125,6.09375 -18.70313,6.09375 -8.15625,0 -14.39062,-3.84375 -6.1875,-3.89062 -9.5625,-11.01562 -3.375,-7.125 -3.51563,-16.54688 v -6.375 q 0,-9.65625 3.42188,-17.01562 3.42187,-7.35938 9.79687,-11.34375 6.42188,-3.98438 14.8125,-3.98438 11.29688,0 18.1875,6.14063 6.89063,6.14062 8.01563,17.34375 h -11.8125 q -0.84375,-7.35938 -4.3125,-10.59375 -3.42188,-3.28125 -10.07813,-3.28125 -7.73437,0 -11.90625,5.67187 -4.125,5.625 -4.21875,16.54688 v 6.04687 q 0,11.0625 3.9375,16.875 3.98438,5.8125 11.625,5.8125 6.98438,0 10.5,-3.14062 3.51563,-3.14063 4.45313,-10.45313 z"
         style="font-weight:500;-inkscape-font-specification:'Roboto, Medium'"
         id="path267" />
      <path
         d="m 229.06055,426.96094 -7.73438,8.20312 v 21.28125 H 209.4668 v -68.25 h 11.85937 v 32.01563 l 6.5625,-8.10938 19.96875,-23.90625 h 14.34375 l -25.35937,30.23438 26.8125,38.01562 h -14.0625 z"
         style="font-weight:500;-inkscape-font-specification:'Roboto, Medium'"
         id="path269" />
    </g>
    <g
       aria-label="BLCK"
       transform="matrix(0.43105887,0,0,0.43105887,36.91365,-53.980795)"
       id="text111"
       style="font-weight:900;font-size:96px;font-family:Roboto;-inkscape-font-specification:'Roboto, Heavy';white-space:pre;shape-inside:url(#rect113);display:inline;stroke:#000000;stroke-width:0;stroke-linecap:round">
      <path
         d="m 37.294922,456.44531 v -68.25 h 23.390625 q 11.578125,0 17.625,4.64063 6.046875,4.64062 6.046875,13.82812 0,4.6875 -2.53125,8.4375 -2.53125,3.75 -7.40625,5.8125 5.53125,1.5 8.53125,5.67188 3.046875,4.125 3.046875,9.9375 0,9.60937 -6.1875,14.76562 -6.140625,5.15625 -17.625,5.15625 z m 11.859375,-30.79687 v 21.32812 h 13.171875 q 5.578125,0 8.71875,-2.76562 3.140625,-2.76563 3.140625,-7.6875 0,-10.64063 -10.875,-10.875 z m 0,-8.71875 h 11.625 q 5.53125,0 8.625,-2.48438 3.140625,-2.53125 3.140625,-7.125 0,-5.0625 -2.90625,-7.3125 -2.859375,-2.25 -8.953125,-2.25 h -11.53125 z"
         style="font-weight:500;-inkscape-font-specification:'Roboto, Medium'"
         id="path254" />
      <path
         d="m 109.7168,446.97656 h 30.98437 v 9.46875 H 97.857422 v -68.25 H 109.7168 Z"
         style="font-weight:500;-inkscape-font-specification:'Roboto, Medium'"
         id="path256" />
      <path
         d="m 198.87305,434.22656 q -1.03125,10.92188 -8.0625,17.0625 -7.03125,6.09375 -18.70313,6.09375 -8.15625,0 -14.39062,-3.84375 -6.1875,-3.89062 -9.5625,-11.01562 -3.375,-7.125 -3.51563,-16.54688 v -6.375 q 0,-9.65625 3.42188,-17.01562 3.42187,-7.35938 9.79687,-11.34375 6.42188,-3.98438 14.8125,-3.98438 11.29688,0 18.1875,6.14063 6.89063,6.14062 8.01563,17.34375 h -11.8125 q -0.84375,-7.35938 -4.3125,-10.59375 -3.42188,-3.28125 -10.07813,-3.28125 -7.73437,0 -11.90625,5.67187 -4.125,5.625 -4.21875,16.54688 v 6.04687 q 0,11.0625 3.9375,16.875 3.98438,5.8125 11.625,5.8125 6.98438,0 10.5,-3.14062 3.51563,-3.14063 4.45313,-10.45313 z"
         style="font-weight:500;-inkscape-font-specification:'Roboto, Medium'"
         id="path258" />
      <path
         d="m 229.06055,426.96094 -7.73438,8.20312 v 21.28125 H 209.4668 v -68.25 h 11.85937 v 32.01563 l 6.5625,-8.10938 19.96875,-23.90625 h 14.34375 l -25.35937,30.23438 26.8125,38.01562 h -14.0625 z"
         style="font-weight:500;-inkscape-font-specification:'Roboto, Medium'"
         id="path260" />
    </g>
  </g>
</svg>
