<?xml version="1.0" encoding="UTF-8" standalone="no"?>
<!-- Created with Inkscape (http://www.inkscape.org/) -->

<svg
   width="62.372929mm"
   height="62.372932mm"
   viewBox="0 0 62.372929 62.372932"
   version="1.1"
   id="svg1"
   xml:space="preserve"
   inkscape:version="1.3.2 (091e20e, 2023-11-25, custom)"
   sodipodi:docname="moerkeLogo.svg"
   xmlns:inkscape="http://www.inkscape.org/namespaces/inkscape"
   xmlns:sodipodi="http://sodipodi.sourceforge.net/DTD/sodipodi-0.dtd"
   xmlns:xlink="http://www.w3.org/1999/xlink"
   xmlns="http://www.w3.org/2000/svg"
   xmlns:svg="http://www.w3.org/2000/svg"><sodipodi:namedview
     id="namedview1"
     pagecolor="#ffffff"
     bordercolor="#000000"
     borderopacity="0.25"
     inkscape:showpageshadow="2"
     inkscape:pageopacity="0.0"
     inkscape:pagecheckerboard="0"
     inkscape:deskcolor="#d1d1d1"
     inkscape:document-units="mm"
     inkscape:zoom="1.3594416"
     inkscape:cx="459.37979"
     inkscape:cy="554.2717"
     inkscape:window-width="1920"
     inkscape:window-height="991"
     inkscape:window-x="1699"
     inkscape:window-y="-9"
     inkscape:window-maximized="1"
     inkscape:current-layer="layer1"
     showgrid="false" /><defs
     id="defs1"><linearGradient
       id="linearGradient138"
       inkscape:collect="always"><stop
         style="stop-color:#939393;stop-opacity:0.25073746;"
         offset="0"
         id="stop138" /><stop
         style="stop-color:#ffffff;stop-opacity:1;"
         offset="0.65848672"
         id="stop200" /><stop
         style="stop-color:#ffffff;stop-opacity:1;"
         offset="1"
         id="stop139" /></linearGradient><linearGradient
       id="swatch23"
       inkscape:swatch="solid"><stop
         style="stop-color:#000000;stop-opacity:1;"
         offset="0"
         id="stop23" /></linearGradient><linearGradient
       inkscape:collect="always"
       xlink:href="#linearGradient138"
       id="linearGradient139"
       x1="445.11121"
       y1="590.76233"
       x2="455.3035"
       y2="590.76233"
       gradientUnits="userSpaceOnUse"
       gradientTransform="matrix(4.9822416,0.39415802,-0.43796796,4.9674728,-1874.2279,-2983.5081)" /></defs><g
     inkscape:label="Layer 1"
     inkscape:groupmode="layer"
     id="layer1"
     transform="translate(-79.12089,-97.368932)"><rect
       style="opacity:1;fill:#000000;fill-opacity:1;fill-rule:nonzero;stroke:#000000;stroke-width:7.077;stroke-linejoin:round;stroke-miterlimit:4.6;stroke-dasharray:none;stroke-opacity:1"
       id="rect60"
       width="55.295925"
       height="55.295925"
       x="82.659393"
       y="100.90743"
       inkscape:export-filename="export.svg"
       inkscape:export-xdpi="96"
       inkscape:export-ydpi="96" /><path
       d="m 94.143871,126.82409 q 0.453361,-5.14207 2.79128,-9.06041 2.373151,-3.94811 6.202799,-5.89221 3.86489,-1.97384 8.5033,-1.60686 3.56804,0.28224 6.49726,1.88176 l 2.78986,-4.59901 4.02211,0.31818 -3.89303,6.36801 q 5.88601,5.48078 4.97359,15.82964 -0.45053,5.10981 -2.82373,9.05791 -2.37315,3.94809 -6.2028,5.89215 -3.82675,1.91174 -8.49758,1.54221 -3.37339,-0.26697 -6.06311,-1.61945 l -2.825149,4.62879 -4.022114,-0.31819 3.82246,-6.30843 q -6.224647,-5.34477 -5.275146,-16.11409 z m 5.938029,1.18623 q -0.55316,6.27401 2.27667,10.11267 l 13.1045,-21.5639 q -1.9198,-1.19403 -4.25522,-1.37877 -4.47618,-0.35415 -7.51169,2.95543 -3.03544,3.30951 -3.61426,9.87457 z m 19.97866,0.8641 q 0.51894,-5.88591 -1.98651,-9.69889 l -12.99011,21.37756 q 1.71276,0.94965 3.85353,1.11901 4.50868,0.35667 7.51168,-2.95539 3.0383,-3.3419 3.56578,-9.32482 z"
       id="text17-8-0-9"
       style="font-size:13.3333px;font-family:Roboto;-inkscape-font-specification:'Roboto, Normal';text-align:center;white-space:pre;opacity:1;fill:url(#linearGradient139);fill-opacity:0.996403;stroke:#ffffff;stroke-width:18.8681;stroke-miterlimit:4.6;stroke-opacity:0"
       aria-label="ø" /></g></svg>
